<?xml version="1.0" encoding="UTF-8"?>
<svg version="1.1" xmlns="http://www.w3.org/2000/svg" width="500" height="500">
<path d="M0 0 C0.99 0 1.98 0 3 0 C3 1.65 3 3.3 3 5 C3.94875 4.95875 4.8975 4.9175 5.875 4.875 C9 5 9 5 11 7 C11.54560955 13.87468031 11.54560955 13.87468031 10 17.0625 C8 18 8 18 0 17 C0 11.39 0 5.78 0 0 Z M5 7 C2.71271266 8.83883881 2.71271266 8.83883881 2.875 11.625 C2.91625 12.40875 2.9575 13.1925 3 14 C4.89179203 14.6814823 4.89179203 14.6814823 7 15 C7.66 14.34 8.32 13.68 9 13 C8.67958603 10.39719432 8.67958603 10.39719432 8 8 C7.01 7.67 6.02 7.34 5 7 Z " fill="#FFFFFF" transform="translate(253,241)"/>
<path d="M0 0 C1.828125 0.02734375 1.828125 0.02734375 4 1 C5.12666239 3.56463939 5.97668335 5.89480072 6.75 8.5625 C6.97042969 9.27341797 7.19085938 9.98433594 7.41796875 10.71679688 C7.96025164 12.4733219 8.48209014 14.23613485 9 16 C7.68 16 6.36 16 5 16 C4.67 15.01 4.34 14.02 4 13 C2.35 13 0.7 13 -1 13 C-1.33 13.99 -1.66 14.98 -2 16 C-2.99 16 -3.98 16 -5 16 C-3.90301833 10.30860098 -2.45946923 5.25432063 0 0 Z M1 4 C0.67 5.98 0.34 7.96 0 10 C0.99 10 1.98 10 3 10 C2.67 8.02 2.34 6.04 2 4 C1.67 4 1.34 4 1 4 Z " fill="#FFFFFF" transform="translate(207,242)"/>
<path d="M0 0 C2.33294775 -0.04241723 4.66702567 -0.04092937 7 0 C8 1 8 1 8.09765625 3.06640625 C8.08605469 3.89011719 8.07445312 4.71382812 8.0625 5.5625 C8.05347656 6.38878906 8.04445312 7.21507812 8.03515625 8.06640625 C8.02355469 8.70449219 8.01195312 9.34257812 8 10 C8.66 10 9.32 10 10 10 C9.67 10.99 9.34 11.98 9 13 C1.49230769 13.36923077 1.49230769 13.36923077 -1 11.5 C-1.33 11.005 -1.66 10.51 -2 10 C-1.25 7.5625 -1.25 7.5625 0 5 C2.0625 4.3125 2.0625 4.3125 4 4 C4.33 3.34 4.66 2.68 5 2 C3.02 2.66 1.04 3.32 -1 4 C-0.67 2.68 -0.34 1.36 0 0 Z M2 7 C1.67 7.99 1.34 8.98 1 10 C2.32 10 3.64 10 5 10 C5 9.01 5 8.02 5 7 C4.01 7 3.02 7 2 7 Z " fill="#FFFFFF" transform="translate(242,246)"/>
<path d="M0 0 C2 2 2 2 2.125 4.625 C2.08375 5.40875 2.0425 6.1925 2 7 C-0.64 7 -3.28 7 -6 7 C-5.67 7.66 -5.34 8.32 -5 9 C-3.02 8.67 -1.04 8.34 1 8 C1 9.32 1 10.64 1 12 C-1.75 12.75 -1.75 12.75 -5 13 C-7.375 11.4375 -7.375 11.4375 -9 9 C-9.45742277 5.79804064 -9.55468045 3.92446741 -7.875 1.125 C-5.15781176 -0.50531294 -3.10347254 -0.33015665 0 0 Z M-4 2 C-4.99 3.485 -4.99 3.485 -6 5 C-4.35 5 -2.7 5 -1 5 C-1.33 4.01 -1.66 3.02 -2 2 C-2.66 2 -3.32 2 -4 2 Z " fill="#FFFFFF" transform="translate(296,246)"/>
<path d="M0 0 C1.921875 0.33984375 1.921875 0.33984375 4 1 C5.25 3.5625 5.25 3.5625 6 6 C6.99 4.02 7.98 2.04 9 0 C9.99 0 10.98 0 12 0 C11.34496718 4.05819183 10.05440879 7.53971282 8.4375 11.3125 C7.98246094 12.38113281 7.52742188 13.44976562 7.05859375 14.55078125 C6.53458984 15.76314453 6.53458984 15.76314453 6 17 C4.02 17 2.04 17 0 17 C0 16.34 0 15.68 0 15 C1.32 15 2.64 15 4 15 C3.32584613 9.7415998 1.75734451 4.97361654 0 0 Z " fill="#FFFFFF" transform="translate(265,246)"/>
<path d="M0 0 C3.0625 0.125 3.0625 0.125 5.0625 1.125 C5.0625 1.785 5.0625 2.445 5.0625 3.125 C3.0825 3.125 1.1025 3.125 -0.9375 3.125 C1.0425 4.445 3.0225 5.765 5.0625 7.125 C4.7325 8.775 4.4025 10.425 4.0625 12.125 C1.25 12.75 1.25 12.75 -1.9375 13.125 C-2.9275 12.465 -3.9175 11.805 -4.9375 11.125 C-4.9375 10.465 -4.9375 9.805 -4.9375 9.125 C-2.6275 9.455 -0.3175 9.785 2.0625 10.125 C0.67054085 7.3410817 -1.09325779 7.14601003 -3.9375 6.125 C-3.980221 4.45888095 -3.97813832 2.79117115 -3.9375 1.125 C-2.9375 0.125 -2.9375 0.125 0 0 Z " fill="#FFFFFF" transform="translate(233.9375,245.875)"/>
<path d="M0 0 C6.0546875 -0.1953125 6.0546875 -0.1953125 8 0 C10 2 10 2 10.1953125 4.3828125 C10.17210937 5.28773438 10.14890625 6.19265625 10.125 7.125 C10.10695312 8.03507813 10.08890625 8.94515625 10.0703125 9.8828125 C10.04710937 10.58148438 10.02390625 11.28015625 10 12 C9.01 12 8.02 12 7 12 C6.67 9.03 6.34 6.06 6 3 C5.01 3.33 4.02 3.66 3 4 C2.67 6.64 2.34 9.28 2 12 C1.34 12 0.68 12 0 12 C0 8.04 0 4.08 0 0 Z " fill="#FFFFFF" transform="translate(218,246)"/>
<path d="M0 0 C0.66 0 1.32 0 2 0 C2 0.99 2 1.98 2 3 C3.32 3 4.64 3 6 3 C6 3.66 6 4.32 6 5 C4.68 5 3.36 5 2 5 C2 7.64 2 10.28 2 13 C3.32 13 4.64 13 6 13 C5.67 13.99 5.34 14.98 5 16 C3.35 15.67 1.7 15.34 0 15 C0 11.7 0 8.4 0 5 C-0.66 5 -1.32 5 -2 5 C-2 4.34 -2 3.68 -2 3 C-1.34 3 -0.68 3 0 3 C0 2.01 0 1.02 0 0 Z " fill="#FFFFFF" transform="translate(280,243)"/>
</svg>
